<?xml version="1.0" standalone="no"?>
<!DOCTYPE svg PUBLIC "-//W3C//DTD SVG 20010904//EN"
 "http://www.w3.org/TR/2001/REC-SVG-20010904/DTD/svg10.dtd">
<svg version="1.0" xmlns="http://www.w3.org/2000/svg"
 width="107.000000pt" height="107.000000pt" viewBox="0 0 107.000000 107.000000"
 preserveAspectRatio="xMidYMid meet">

<g transform="translate(0.000000,107.000000) scale(0.100000,-0.100000)"
fill="#000000" stroke="none">
<path d="M270 304 c-14 -7 -44 -13 -67 -14 -46 0 -54 -12 -30 -45 11 -14 23
-17 60 -13 55 6 77 22 77 54 0 30 -10 35 -40 18z m20 -34 c0 -5 -7 -10 -15
-10 -8 0 -15 5 -15 10 0 6 7 10 15 10 8 0 15 -4 15 -10z m-72 -11 c-2 -6 -8
-10 -13 -10 -5 0 -11 4 -13 10 -2 6 4 11 13 11 9 0 15 -5 13 -11z"/>
<path d="M355 260 c-3 -5 -1 -10 4 -10 6 0 11 5 11 10 0 6 -2 10 -4 10 -3 0
-8 -4 -11 -10z"/>
<path d="M235 209 l-30 -7 31 -1 c20 -1 34 -7 38 -18 11 -28 -10 -37 -28 -12
-9 13 -16 19 -16 13 0 -15 33 -44 50 -44 7 0 10 3 7 7 -4 3 -2 12 3 18 18 22
-20 52 -55 44z"/>
<path d="M184 150 c0 -11 5 -19 11 -17 5 2 10 10 10 17 0 7 -5 15 -10 17 -6 2
-11 -6 -11 -17z"/>
</g>
</svg>
